<?xml version="1.0" encoding="utf-8"?>
<!-- Generator: Adobe Illustrator 19.1.0, SVG Export Plug-In . SVG Version: 6.00 Build 0)  -->
<svg version="1.1" id="Layer_1" xmlns="http://www.w3.org/2000/svg" xmlns:xlink="http://www.w3.org/1999/xlink" x="0px" y="0px"
	 viewBox="0 0 1432.4 409.1" style="enable-background:new 0 0 1432.4 409.1;" xml:space="preserve">
<style type="text/css">
	.st0{fill:#1C2124;}
	.st1{fill:#FFFFFF;}
</style>
<rect class="st0" width="1432.4" height="409.1"/>
<path class="st1" d="M347.3,116c16,0,29-13,29-29s-13-29-29-29c-16,0-29,13-29,29S331.3,116,347.3,116z"/>
<path class="st1" d="M412.2,212.4l-25.8-79.9c-1.4-4.3-6-7.5-10.5-7.5h-6.3c-0.1,0-0.2,0-0.3,0c-0.1,0-0.2,0-0.3,0h-43.7
	c-0.2,0-0.3,0-0.5,0.1c-0.2,0-0.3-0.1-0.5-0.1h-4.9c-4.5,0-9.1,3.2-10.5,7.5l-25.8,80c-0.8,2.4-0.4,4.8,0.9,6.6
	c1.3,1.8,3.5,2.9,6,2.9h4.1c4.5,0,9.3-3.4,10.7-7.7l12-35.9v19.3c-2,1.2-3.9,2.8-4.9,4.6l-19.6,34.4c-1.2,2.1-1.4,4.6-0.6,6.6
	c0.9,2.1,3.1,3.6,5.5,4.2l21.6,5.3v85.4c0,6.5,4.7,12.7,11.2,12.7h2.9c6.5,0,12-6.2,12-12.7v-79.1c2,0.1,2.5,0.2,3.6,0.2
	c1.4,0,2.4-0.1,4.4-0.2v79.1c0,6.5,4.2,12.7,10.7,12.7h2.9c6.5,0,12.4-6.2,12.4-12.7v-85.7l18.9-4.9c2.4-0.6,4.1-2.2,5-4.2
	c0.9-2.1,0.6-4.5-0.6-6.6l-19.5-34.4c-1-1.8-2.8-3.4-4.8-4.6v-20.3l12.8,36.9c1.5,4.2,6.1,7.6,10.6,7.6h4.1c2.5,0,4.7-1.1,6-2.9
	C412.7,217.2,413,214.7,412.2,212.4z M333,167.7c-2.8,2.2-5-0.3-5-0.3l-11.4-13.4c0,0-0.7-0.8-0.7-2.2s0.9-2.6,0.9-2.6l10.9-12.6
	c0,0,2.8-2.2,5-0.7c2.2,1.6,1,4.7,1,4.7l-9.3,11.2l9.1,10.5C333.5,162.3,335.8,165.5,333,167.7z M357,139.8l-11,26
	c0,0-1.6,3.7-5.2,2.4c-3.5-1.3-1.6-5.3-1.6-5.3l10.4-24.9c0,0,1.8-3.8,5.1-2.3S357,139.8,357,139.8z M378.8,154.1l-11.4,13.4
	c0,0-2.2,2.5-5,0.3c-2.8-2.2-0.5-5.4-0.5-5.4l9.1-10.5l-9.5-11.1c0,0-1-3.3,1.2-4.8c2.2-1.6,5.2,0.5,5.2,0.5l10.7,12.8
	c0,0,0.9,1.2,0.9,2.6S378.8,154.1,378.8,154.1z"/>
<g>
	<path class="st1" d="M494.3,179.3c4.5,0,10.2,0.8,15.6,2.3v9.3h-3.7c-2.1-4.3-4.9-6.6-12.4-6.6c-8.6,0-16.3,6-16.3,22
		s7.8,21.5,17.4,21.5c7.6,0,9.3-2.2,11.4-6.6h3.7v9.3c-5.4,1.5-11,2.3-15.6,2.3c-13.8,0-23.7-7.8-23.7-26.9
		C470.6,187,480.4,179.3,494.3,179.3z"/>
	<path class="st1" d="M535.9,192.3c9.8,0,19.1,5.3,19.1,20.3s-9.3,20.3-19.1,20.3s-19.1-5.1-19.1-20.3
		C516.8,197.4,526.1,192.3,535.9,192.3z M535.9,228.3c9.1,0,12.7-6.3,12.7-15.7c0-9.4-3.7-15.7-12.7-15.7c-9,0-12.6,6.3-12.6,15.7
		C523.3,221.9,526.9,228.3,535.9,228.3z"/>
	<path class="st1" d="M596.8,225.1c0,1.7,0.9,3,3,3h2.1v3.8c-1.3,0.4-2.7,0.6-4.2,0.6c-2.9,0-5.7-0.9-6.6-4.4
		c-5,3.2-9.7,4.8-14.3,4.8c-7.8,0-14.9-5.3-14.9-19.4c0-16.1,8.7-21.2,19.2-21.2c2.8,0,6.6,0.6,9.6,1.3v-10.8c0-1.7-0.9-1.7-1.9-1.7
		h-3.8v-4h11.9V225.1z M577.9,228.2c4.6,0,8.9-1.9,12.7-4.9v-24.8c-2.5-0.8-6.2-1.5-8.8-1.5c-10.5,0-13.5,6.8-13.5,16.3
		C568.3,223.6,572.1,228.2,577.9,228.2z"/>
	<path class="st1" d="M638.3,220.6h2.4v8.4c-3.7,2.2-10.4,3.8-14.3,3.8c-12.3,0-18.8-6.1-18.8-20.4c0-13,6.6-20.2,17.9-20.2
		c13.7,0,16.3,9.5,16.3,19v3h-27.5c0,9.8,4.5,14,12.2,14C630.8,228.2,636.5,227.5,638.3,220.6z M635.5,209.8
		c0-5.8-1.3-12.8-10.3-12.8c-7.8,0-11.1,5.5-11.1,12.8H635.5z"/>
	<path class="st1" d="M676.7,226.3c0,1.7,0.9,1.7,1.9,1.7h3.2v4h-16.3v-4h3.1c1.1,0,1.9-0.1,1.9-1.7v-43.6c0-1.7-0.9-1.7-1.9-1.7
		h-3.2v-4h11.3V226.3z"/>
	<path class="st1" d="M700.7,228.2c1.1,0,1.4,0,1.8-0.1v4.1c-1.2,0.2-2.4,0.4-3.6,0.4c-4,0-7.6-1.5-7.6-7.3v-26.4
		c0-1.7-0.9-1.7-1.9-1.7h-3.2v-4h11.3v30.5C697.4,226.6,698.2,228.2,700.7,228.2z M691,177.1h6.6v6.8H691V177.1z"/>
	<path class="st1" d="M732,197.2l-5.9-1.1v-2.9h16.1v4h-4.3l-10.4,14l5.5,8.4c4.1,6.3,8.1,8.2,12.2,8.2v4.1
		c-1.2,0.4-2.4,0.6-3.5,0.6c-5.6,0-10.4-4.1-13.8-9.4l-6.8-10.7h-2.7V228h5.1v4H707v-4h3.1c1.1,0,1.9-0.1,1.9-1.7v-43.6
		c0-1.7-0.9-1.7-1.9-1.7h-3.2v-4h11.3v32h5.1L732,197.2z"/>
	<path class="st1" d="M778,220.6h2.4v8.4c-3.7,2.2-10.4,3.8-14.3,3.8c-12.3,0-18.8-6.1-18.8-20.4c0-13,6.6-20.2,17.9-20.2
		c13.7,0,16.3,9.5,16.3,19v3h-27.5c0,9.8,4.5,14,12.2,14C770.5,228.2,776.3,227.5,778,220.6z M775.2,209.8c0-5.8-1.3-12.8-10.3-12.8
		c-7.8,0-11.1,5.5-11.1,12.8H775.2z"/>
	<path class="st1" d="M830.1,209.8v-5.1c0-4.2-2.7-7.9-8.6-7.9c-2.8,0-8.5,0.2-10.1,6.3h-3.2v-8.5c4-1.2,8.9-2.3,13.4-2.3
		c7.8,0,14.7,3.1,14.7,13.6v19.2c0,1.7,0.9,3,3,3h2.1v3.8c-1.3,0.4-2.7,0.6-4.2,0.6c-3,0-6-0.7-6.6-4.4c-4,3.1-9.3,4.5-13,4.5
		c-5.8,0-11.7-3.6-11.7-11.2c0-6.4,5-11.6,15.3-11.6H830.1z M830.1,214.1h-8.4c-5.1,0-9.5,1.5-9.5,7.1c0,4.8,3.3,6.5,7.3,6.5
		c3.8,0,8.1-1.9,10.7-3.8V214.1z"/>
	<path class="st1" d="M880.3,192.3c3.5,0,7.2,1,9.9,1c2.5,0,4.5,0,4.5-3.4h5.3c0,6.5-3.3,7.6-6.8,7.6c-0.4,0-0.9-0.1-1.2-0.1
		c2.5,1.9,4.1,4.9,4.1,8.9c0,8.9-6.3,13.6-15.6,13.6c-1.7,0-4.8-0.5-6.3-1c-1,1.4-1.7,3.1-1.7,4.5c0,1.5,0.9,2.7,3.4,2.7h11.2
		c6.2,0,12,2.8,12,9.5c0,8.6-6.5,12.2-18.4,12.2c-12.2,0-17.3-3-17.3-9c0-3.2,1.8-6.8,7.6-8.3c-2.8-1.2-3.9-3.2-3.9-5.3
		c0-2.4,1.4-5.3,3.5-7.5c-3.8-2-6.2-6.1-6.2-11.4C864.6,197.2,870.7,192.3,880.3,192.3z M876.2,231.3c-3.5,0-6.3,2.7-6.3,6
		c0,3.5,2.4,6,10.9,6c8,0,12.2-1.9,12.2-7c0-2.2-1-5-7.1-5H876.2z M880.4,196.7c-7,0-9.4,3.8-9.4,9.4c0,5.6,2.4,9.3,9.4,9.3
		c6.9,0,9.4-3.6,9.4-9.3C889.8,200.5,887.3,196.7,880.4,196.7z"/>
	<path class="st1" d="M918,228.2c1.1,0,1.4,0,1.8-0.1v4.1c-1.2,0.2-2.4,0.4-3.6,0.4c-4,0-7.6-1.5-7.6-7.3v-26.4
		c0-1.7-0.9-1.7-1.9-1.7h-3.2v-4h11.3v30.5C914.7,226.6,915.5,228.2,918,228.2z M908.3,177.1h6.6v6.8h-6.6V177.1z"/>
	<path class="st1" d="M930,198.9c0-1.7-0.9-1.7-1.9-1.7h-3.2v-4H936v7.6c7.1-7.1,13.5-8.5,13.5-8.5v7.7c-8.9,1.6-13.3,4-13.3,4v24
		h5.1v4H925v-4h3.1c1.1,0,1.9-0.1,1.9-1.7V198.9z"/>
	<path class="st1" d="M964.5,226.3c0,1.7,0.9,1.7,1.9,1.7h3.2v4h-16.3v-4h3.1c1.1,0,1.9-0.1,1.9-1.7v-43.6c0-1.7-0.9-1.7-1.9-1.7
		h-3.2v-4h11.3V226.3z"/>
</g>
</svg>
